<?xml version="1.0" encoding="UTF-8" standalone="no"?>
<!DOCTYPE svg PUBLIC "-//W3C//DTD SVG 1.1//EN" "http://www.w3.org/Graphics/SVG/1.1/DTD/svg11.dtd">
<svg width="100%" height="100%" viewBox="0 0 1660 444" version="1.1" xmlns="http://www.w3.org/2000/svg" xmlns:xlink="http://www.w3.org/1999/xlink" xml:space="preserve" xmlns:serif="http://www.serif.com/" style="fill-rule:evenodd;clip-rule:evenodd;stroke-linejoin:round;stroke-miterlimit:2;">
    <g transform="matrix(2.41001,0,0,2.02191,-561.768,148.94)">
        <path d="M363.625,63.656L357.423,129.215L233.098,138.96L237.823,-71.891L314.603,-71.891L303.677,63.656L363.625,63.656Z" style="fill-rule:nonzero;"/>
        <path d="M556.757,129.215L483.52,138.664L474.661,105.294L440.996,105.294L433.613,138.664L358.309,131.282L417.076,-65.394L499.172,-69.529L556.757,129.215ZM469.346,60.112L458.124,8.728L447.197,60.112L469.346,60.112Z" style="fill-rule:nonzero;"/>
        <path d="M743.097,67.2C743.097,78.323 742.974,89.323 742.728,100.2C742.482,111.078 742.113,122.029 741.621,133.054L656.572,131.577C659.525,114.154 662.084,96.755 664.25,79.381C666.415,62.007 667.498,44.461 667.498,26.742C667.498,25.463 667.449,23.395 667.351,20.541C667.252,17.686 667.055,14.462 666.76,10.869C666.465,7.276 666.046,3.585 665.505,-0.205C664.963,-3.995 664.225,-7.464 663.29,-10.614C662.355,-13.764 661.223,-16.348 659.894,-18.366C658.565,-20.384 656.966,-21.393 655.095,-21.393C651.748,-21.393 648.918,-20.409 646.605,-18.44C644.292,-16.471 642.372,-13.937 640.847,-10.836C639.321,-7.735 638.115,-4.265 637.229,-0.426C636.343,3.413 635.679,7.252 635.236,11.091C634.793,14.93 634.497,18.547 634.35,21.943C634.202,25.339 634.128,28.12 634.128,30.286C633.636,47.709 633.242,65.009 632.947,82.187C632.652,99.364 632.258,116.713 631.766,134.235L556.462,137.483C558.431,102.735 560.326,68.184 562.147,33.83C563.968,-0.525 565.42,-35.076 566.502,-69.824L636.195,-73.368L635.605,-49.743C638.361,-53.09 641.339,-56.24 644.538,-59.193C647.737,-62.146 651.158,-64.681 654.8,-66.797C658.442,-68.913 662.306,-70.587 666.391,-71.817C670.476,-73.048 674.783,-73.663 679.311,-73.663C687.678,-73.663 695.011,-72.285 701.311,-69.529C707.611,-66.772 713.025,-63.032 717.553,-58.307C722.081,-53.582 725.871,-47.996 728.923,-41.548C731.974,-35.101 734.435,-28.235 736.305,-20.95C738.176,-13.666 739.603,-6.062 740.587,1.862C741.572,9.787 742.236,17.588 742.581,25.266C742.925,32.944 743.097,40.376 743.097,47.562L743.097,67.2Z" style="fill-rule:nonzero;"/>
        <path d="M921.76,22.608C921.76,31.172 921.169,39.736 919.988,48.3C903.155,49.383 886.421,51.13 869.785,53.542C853.149,55.953 836.514,58.34 819.878,60.703C822.437,67.79 826.449,73.45 831.912,77.683C837.375,81.916 843.896,84.032 851.476,84.032C855.413,84.032 859.72,83.294 864.396,81.817C869.072,80.341 873.723,78.495 878.349,76.28C882.976,74.066 887.405,71.678 891.638,69.119C895.871,66.56 899.513,64.246 902.565,62.179L895.477,129.215C891.638,132.168 887.479,134.678 883,136.745C878.521,138.812 873.87,140.486 869.047,141.765C864.224,143.045 859.351,143.98 854.429,144.571C849.507,145.161 844.684,145.457 839.959,145.457C830.214,145.457 821.305,144.128 813.233,141.47C805.162,138.812 797.853,135.096 791.307,130.322C784.761,125.548 779.027,119.912 774.105,113.416C769.183,106.919 765.098,99.831 761.85,92.153C758.601,84.475 756.14,76.354 754.467,67.79C752.793,59.226 751.957,50.564 751.957,41.803C751.957,32.648 752.793,23.494 754.467,14.339C756.14,5.185 758.675,-3.625 762.071,-12.091C765.467,-20.557 769.749,-28.407 774.917,-35.642C780.085,-42.877 786.114,-49.202 793.005,-54.616C799.895,-60.03 807.696,-64.262 816.408,-67.314C825.12,-70.365 834.742,-71.891 845.274,-71.891C854.035,-71.891 862.033,-70.685 869.268,-68.274C876.503,-65.862 882.951,-62.515 888.611,-58.233C894.271,-53.951 899.193,-48.857 903.377,-42.951C907.56,-37.045 911.005,-30.572 913.712,-23.534C916.419,-16.496 918.437,-9.064 919.766,-1.238C921.095,6.587 921.76,14.536 921.76,22.608ZM862.698,14.93C862.698,12.174 862.402,9.344 861.812,6.44C861.221,3.536 860.261,0.903 858.933,-1.46C857.604,-3.822 855.856,-5.766 853.691,-7.292C851.525,-8.818 848.818,-9.581 845.57,-9.581C841.632,-9.581 838.162,-8.523 835.16,-6.406C832.158,-4.29 829.574,-1.632 827.408,1.567C825.243,4.766 823.471,8.236 822.093,11.977C820.715,15.717 819.681,19.163 818.992,22.313L862.698,18.178L862.698,14.93Z" style="fill-rule:nonzero;"/>
    </g>
</svg>
