<?xml version="1.0" encoding="UTF-8" standalone="no"?>
<!DOCTYPE svg PUBLIC "-//W3C//DTD SVG 1.1//EN" "http://www.w3.org/Graphics/SVG/1.1/DTD/svg11.dtd">
<svg width="100%" height="100%" viewBox="0 0 573 362" version="1.1" xmlns="http://www.w3.org/2000/svg" xmlns:xlink="http://www.w3.org/1999/xlink" xml:space="preserve" xmlns:serif="http://www.serif.com/" style="fill-rule:evenodd;clip-rule:evenodd;stroke-linecap:round;stroke-linejoin:round;stroke-miterlimit:1.5;">
    <g transform="matrix(0.17076,0.985313,-0.985313,0.17076,820.497,-216.461)">
        <path d="M457.198,599.34C430.425,622.234 384.655,666.073 323.101,666.073C247.551,666.073 178.068,624.99 161.265,593.358C155.258,611.487 160.072,649.798 160.072,663.052C160.072,663.052 156.114,728.134 201.38,773.401C201.38,749.896 220.435,730.842 243.939,730.842C284.226,730.842 284.181,765.99 284.144,794.506C284.143,795.36 284.142,796.209 284.142,797.051C284.142,840.333 310.595,877.436 348.215,893.075C342.596,881.518 339.444,868.54 339.444,854.825C339.444,813.545 363.679,798.175 391.845,780.311C414.255,766.098 439.155,750.307 456.315,718.629C465.268,702.101 470.352,683.17 470.352,663.052C470.352,650.68 460.761,610.531 457.198,599.34Z" style="fill:rgb(255,93,1);"/>
    </g>
    <g transform="matrix(16.3292,-4.83898e-31,1.61299e-31,16.3292,-13639.3,-2465.34)">
        <path d="M860.027,150.991C865.708,150.991 870.32,155.603 870.32,161.284C870.32,166.964 865.708,171.576 860.027,171.576C854.346,171.576 849.735,166.964 849.735,161.284C849.735,155.603 854.346,150.991 860.027,150.991ZM860.027,166.298C860.795,166.298 861.418,166.922 861.418,167.689C861.418,168.457 860.795,169.081 860.027,169.081C859.259,169.081 858.636,168.457 858.636,167.689C858.636,166.922 859.259,166.298 860.027,166.298ZM866.246,159.892C867.014,159.892 867.637,160.516 867.637,161.284C867.637,162.051 867.014,162.675 866.246,162.675C865.478,162.675 864.854,162.051 864.854,161.284C864.854,160.516 865.478,159.892 866.246,159.892ZM853.745,159.892C854.513,159.892 855.137,160.516 855.137,161.284C855.137,162.051 854.513,162.675 853.745,162.675C852.978,162.675 852.354,162.051 852.354,161.284C852.354,160.516 852.978,159.892 853.745,159.892ZM860.027,159.892C860.795,159.892 861.418,160.516 861.418,161.284C861.418,162.051 860.795,162.675 860.027,162.675C859.259,162.675 858.636,162.051 858.636,161.284C858.636,160.516 859.259,159.892 860.027,159.892ZM860.027,153.646C860.795,153.646 861.418,154.27 861.418,155.038C861.418,155.806 860.795,156.429 860.027,156.429C859.259,156.429 858.636,155.806 858.636,155.038C858.636,154.27 859.259,153.646 860.027,153.646Z" style="fill:rgb(255,186,69);stroke:rgb(232,153,20);stroke-width:0.03px;"/>
    </g>
</svg>
